G75*
G70*
%OFA0B0*%
%FSLAX24Y24*%
%IPPOS*%
%LPD*%
%AMOC8*
5,1,8,0,0,1.08239X$1,22.5*
%
%ADD10C,0.0095*%
%ADD11C,0.0085*%
%ADD12C,0.0000*%
%ADD13C,0.0060*%
%ADD14R,0.0050X0.0010*%
%ADD15R,0.0010X0.0010*%
%ADD16R,0.0100X0.0010*%
%ADD17R,0.0060X0.0010*%
%ADD18R,0.0140X0.0010*%
%ADD19R,0.0070X0.0010*%
%ADD20R,0.0160X0.0010*%
%ADD21R,0.0110X0.0010*%
%ADD22R,0.0200X0.0010*%
%ADD23R,0.0150X0.0010*%
%ADD24R,0.0210X0.0010*%
%ADD25R,0.0180X0.0010*%
%ADD26R,0.0230X0.0010*%
%ADD27R,0.0240X0.0010*%
%ADD28R,0.0260X0.0010*%
%ADD29R,0.0250X0.0010*%
%ADD30R,0.0270X0.0010*%
%ADD31R,0.0280X0.0010*%
%ADD32R,0.0290X0.0010*%
%ADD33R,0.0310X0.0010*%
%ADD34R,0.0330X0.0010*%
%ADD35R,0.0300X0.0010*%
%ADD36R,0.0340X0.0010*%
%ADD37R,0.0360X0.0010*%
%ADD38R,0.0380X0.0010*%
%ADD39R,0.0390X0.0010*%
%ADD40R,0.0320X0.0010*%
%ADD41R,0.0410X0.0010*%
%ADD42R,0.0030X0.0010*%
%ADD43R,0.0460X0.0010*%
%ADD44R,0.0490X0.0010*%
%ADD45R,0.0020X0.0010*%
%ADD46R,0.0520X0.0010*%
%ADD47R,0.0580X0.0010*%
%ADD48R,0.0610X0.0010*%
%ADD49R,0.0620X0.0010*%
%ADD50R,0.0650X0.0010*%
%ADD51R,0.0690X0.0010*%
%ADD52R,0.0710X0.0010*%
%ADD53R,0.0730X0.0010*%
%ADD54R,0.0760X0.0010*%
%ADD55R,0.0770X0.0010*%
%ADD56R,0.0740X0.0010*%
%ADD57R,0.0750X0.0010*%
%ADD58R,0.0040X0.0010*%
%ADD59R,0.0790X0.0010*%
%ADD60R,0.0800X0.0010*%
%ADD61R,0.0080X0.0010*%
%ADD62R,0.0090X0.0010*%
%ADD63R,0.0810X0.0010*%
%ADD64R,0.0780X0.0010*%
%ADD65R,0.0170X0.0010*%
%ADD66R,0.0120X0.0010*%
%ADD67R,0.0130X0.0010*%
%ADD68R,0.0350X0.0010*%
%ADD69R,0.0570X0.0010*%
%ADD70R,0.0190X0.0010*%
%ADD71R,0.0500X0.0010*%
%ADD72R,0.0370X0.0010*%
%ADD73R,0.0530X0.0010*%
%ADD74R,0.0470X0.0010*%
%ADD75R,0.0420X0.0010*%
%ADD76R,0.0440X0.0010*%
%ADD77R,0.0220X0.0010*%
%ADD78R,0.0430X0.0010*%
%ADD79R,0.0450X0.0010*%
%ADD80R,0.0400X0.0010*%
%ADD81R,0.0510X0.0010*%
%ADD82R,0.0540X0.0010*%
%ADD83R,0.0590X0.0010*%
%ADD84R,0.0700X0.0010*%
%ADD85R,0.1090X0.0010*%
%ADD86R,0.1100X0.0010*%
%ADD87R,0.1110X0.0010*%
%ADD88R,0.1120X0.0010*%
%ADD89R,0.1140X0.0010*%
%ADD90R,0.1150X0.0010*%
%ADD91R,0.1160X0.0010*%
%ADD92R,0.1170X0.0010*%
%ADD93R,0.1180X0.0010*%
%ADD94R,0.1190X0.0010*%
%ADD95R,0.1200X0.0010*%
%ADD96R,0.1210X0.0010*%
%ADD97R,0.1220X0.0010*%
%ADD98R,0.0870X0.0010*%
%ADD99R,0.0880X0.0010*%
%ADD100R,0.0850X0.0010*%
%ADD101R,0.0860X0.0010*%
%ADD102R,0.0480X0.0010*%
%ADD103R,0.0550X0.0010*%
%ADD104R,0.0840X0.0010*%
%ADD105R,0.0560X0.0010*%
%ADD106R,0.0820X0.0010*%
%ADD107R,0.0830X0.0010*%
%ADD108R,0.0600X0.0010*%
%ADD109R,0.0630X0.0010*%
%ADD110R,0.0670X0.0010*%
%ADD111R,0.0920X0.0010*%
%ADD112R,0.0930X0.0010*%
%ADD113R,0.0950X0.0010*%
%ADD114R,0.1000X0.0010*%
%ADD115R,0.1040X0.0010*%
%ADD116R,0.1290X0.0010*%
%ADD117R,0.1600X0.0010*%
%ADD118R,0.1630X0.0010*%
%ADD119R,0.1650X0.0010*%
%ADD120R,0.1660X0.0010*%
%ADD121R,0.1690X0.0010*%
%ADD122R,0.1730X0.0010*%
%ADD123R,0.1740X0.0010*%
%ADD124R,0.1760X0.0010*%
%ADD125R,0.1780X0.0010*%
%ADD126R,0.1810X0.0010*%
%ADD127R,0.1820X0.0010*%
%ADD128R,0.1800X0.0010*%
%ADD129R,0.1790X0.0010*%
%ADD130R,0.1770X0.0010*%
%ADD131R,0.1750X0.0010*%
%ADD132R,0.1700X0.0010*%
%ADD133R,0.0960X0.0010*%
%ADD134R,0.0680X0.0010*%
%ADD135R,0.0660X0.0010*%
%ADD136R,0.0720X0.0010*%
%ADD137R,0.0890X0.0010*%
%ADD138R,0.0980X0.0010*%
%ADD139R,0.1020X0.0010*%
%ADD140R,0.1060X0.0010*%
%ADD141R,0.1070X0.0010*%
%ADD142R,0.1080X0.0010*%
%ADD143R,0.1050X0.0010*%
%ADD144R,0.1030X0.0010*%
%ADD145R,0.0640X0.0010*%
%ADD146R,0.0900X0.0010*%
%ADD147R,0.0990X0.0010*%
%ADD148R,0.1010X0.0010*%
%ADD149R,0.2200X0.0010*%
%ADD150R,0.2190X0.0010*%
%ADD151R,0.2160X0.0010*%
%ADD152R,0.2140X0.0010*%
%ADD153R,0.2150X0.0010*%
%ADD154R,0.2120X0.0010*%
%ADD155R,0.2110X0.0010*%
%ADD156R,0.2130X0.0010*%
%ADD157R,0.2170X0.0010*%
%ADD158R,0.2060X0.0010*%
%ADD159R,0.2070X0.0010*%
%ADD160R,0.2040X0.0010*%
%ADD161R,0.2050X0.0010*%
%ADD162R,0.2020X0.0010*%
%ADD163R,0.2030X0.0010*%
%ADD164R,0.2000X0.0010*%
%ADD165R,0.1970X0.0010*%
%ADD166R,0.1960X0.0010*%
%ADD167R,0.1930X0.0010*%
%ADD168R,0.1360X0.0010*%
%ADD169R,0.1910X0.0010*%
%ADD170R,0.1370X0.0010*%
%ADD171R,0.1900X0.0010*%
%ADD172R,0.1390X0.0010*%
%ADD173R,0.1890X0.0010*%
%ADD174R,0.1380X0.0010*%
%ADD175R,0.1920X0.0010*%
%ADD176R,0.1940X0.0010*%
%ADD177R,0.1950X0.0010*%
%ADD178R,0.1980X0.0010*%
%ADD179R,0.1990X0.0010*%
%ADD180R,0.1350X0.0010*%
%ADD181R,0.2010X0.0010*%
%ADD182R,0.1340X0.0010*%
%ADD183R,0.1330X0.0010*%
%ADD184R,0.1320X0.0010*%
%ADD185R,0.1310X0.0010*%
%ADD186R,0.1850X0.0010*%
%ADD187R,0.1840X0.0010*%
%ADD188R,0.0910X0.0010*%
%ADD189R,0.1460X0.0010*%
%ADD190R,0.1640X0.0010*%
%ADD191R,0.1620X0.0010*%
%ADD192R,0.1610X0.0010*%
%ADD193R,0.1590X0.0010*%
%ADD194R,0.1570X0.0010*%
%ADD195R,0.1540X0.0010*%
%ADD196R,0.1520X0.0010*%
%ADD197R,0.1500X0.0010*%
%ADD198R,0.1450X0.0010*%
%ADD199R,0.1440X0.0010*%
%ADD200R,0.1410X0.0010*%
%ADD201R,0.1400X0.0010*%
%ADD202R,0.1260X0.0010*%
%ADD203R,0.1230X0.0010*%
%ADD204R,0.1130X0.0010*%
%ADD205R,0.0970X0.0010*%
%ADD206R,0.0940X0.0010*%
%ADD207R,0.1250X0.0010*%
%ADD208R,0.1280X0.0010*%
%ADD209R,0.1420X0.0010*%
%ADD210R,0.1430X0.0010*%
%ADD211R,0.1470X0.0010*%
%ADD212R,0.1480X0.0010*%
%ADD213R,0.1490X0.0010*%
%ADD214R,0.1510X0.0010*%
%ADD215R,0.1530X0.0010*%
%ADD216R,0.1240X0.0010*%
%ADD217R,0.1300X0.0010*%
D10*
X003134Y000151D02*
X043134Y000151D01*
X043134Y030151D01*
X003134Y030151D01*
D11*
X003134Y000151D01*
D12*
X004875Y021151D02*
X004877Y021186D01*
X004883Y021221D01*
X004893Y021255D01*
X004906Y021288D01*
X004923Y021319D01*
X004944Y021347D01*
X004967Y021374D01*
X004994Y021397D01*
X005022Y021418D01*
X005053Y021435D01*
X005086Y021448D01*
X005120Y021458D01*
X005155Y021464D01*
X005190Y021466D01*
X005225Y021464D01*
X005260Y021458D01*
X005294Y021448D01*
X005327Y021435D01*
X005358Y021418D01*
X005386Y021397D01*
X005413Y021374D01*
X005436Y021347D01*
X005457Y021319D01*
X005474Y021288D01*
X005487Y021255D01*
X005497Y021221D01*
X005503Y021186D01*
X005505Y021151D01*
X005503Y021116D01*
X005497Y021081D01*
X005487Y021047D01*
X005474Y021014D01*
X005457Y020983D01*
X005436Y020955D01*
X005413Y020928D01*
X005386Y020905D01*
X005358Y020884D01*
X005327Y020867D01*
X005294Y020854D01*
X005260Y020844D01*
X005225Y020838D01*
X005190Y020836D01*
X005155Y020838D01*
X005120Y020844D01*
X005086Y020854D01*
X005053Y020867D01*
X005022Y020884D01*
X004994Y020905D01*
X004967Y020928D01*
X004944Y020955D01*
X004923Y020983D01*
X004906Y021014D01*
X004893Y021047D01*
X004883Y021081D01*
X004877Y021116D01*
X004875Y021151D01*
X006607Y021151D02*
X006609Y021188D01*
X006615Y021225D01*
X006624Y021260D01*
X006638Y021295D01*
X006654Y021328D01*
X006675Y021359D01*
X006698Y021388D01*
X006724Y021414D01*
X006753Y021437D01*
X006784Y021458D01*
X006817Y021474D01*
X006852Y021488D01*
X006887Y021497D01*
X006924Y021503D01*
X006961Y021505D01*
X006998Y021503D01*
X007035Y021497D01*
X007070Y021488D01*
X007105Y021474D01*
X007138Y021458D01*
X007169Y021437D01*
X007198Y021414D01*
X007224Y021388D01*
X007247Y021359D01*
X007268Y021328D01*
X007284Y021295D01*
X007298Y021260D01*
X007307Y021225D01*
X007313Y021188D01*
X007315Y021151D01*
X007313Y021114D01*
X007307Y021077D01*
X007298Y021042D01*
X007284Y021007D01*
X007268Y020974D01*
X007247Y020943D01*
X007224Y020914D01*
X007198Y020888D01*
X007169Y020865D01*
X007138Y020844D01*
X007105Y020828D01*
X007070Y020814D01*
X007035Y020805D01*
X006998Y020799D01*
X006961Y020797D01*
X006924Y020799D01*
X006887Y020805D01*
X006852Y020814D01*
X006817Y020828D01*
X006784Y020844D01*
X006753Y020865D01*
X006724Y020888D01*
X006698Y020914D01*
X006675Y020943D01*
X006654Y020974D01*
X006638Y021007D01*
X006624Y021042D01*
X006615Y021077D01*
X006609Y021114D01*
X006607Y021151D01*
D13*
X024133Y010324D02*
X024133Y010004D01*
X024347Y010004D02*
X024347Y010324D01*
X024240Y010431D01*
X024133Y010324D01*
X024347Y010324D02*
X024453Y010431D01*
X024560Y010431D01*
X024560Y010004D01*
X024778Y010110D02*
X024778Y010324D01*
X024884Y010431D01*
X025098Y010431D01*
X025205Y010324D01*
X025205Y010110D01*
X025098Y010004D01*
X024884Y010004D01*
X024778Y010110D01*
X025422Y010004D02*
X025742Y010004D01*
X025849Y010110D01*
X025849Y010324D01*
X025742Y010431D01*
X025422Y010431D01*
X026065Y010110D02*
X026065Y010004D01*
X026171Y010004D01*
X026171Y010110D01*
X026065Y010110D01*
X026388Y010004D02*
X026494Y010110D01*
X026494Y010537D01*
X026388Y010431D02*
X026601Y010431D01*
X026819Y010324D02*
X026819Y010004D01*
X027139Y010004D01*
X027246Y010110D01*
X027139Y010217D01*
X026819Y010217D01*
X026819Y010324D02*
X026925Y010431D01*
X027139Y010431D01*
X027463Y010324D02*
X027463Y010004D01*
X027677Y010004D02*
X027677Y010324D01*
X027570Y010431D01*
X027463Y010324D01*
X027677Y010324D02*
X027783Y010431D01*
X027890Y010431D01*
X027890Y010004D01*
X028108Y010004D02*
X028535Y010004D01*
X028108Y010431D01*
X028535Y010431D01*
X028752Y010324D02*
X028752Y010004D01*
X029072Y010004D01*
X029179Y010110D01*
X029072Y010217D01*
X028752Y010217D01*
X028752Y010324D02*
X028859Y010431D01*
X029072Y010431D01*
X029397Y010324D02*
X029397Y010004D01*
X029397Y010324D02*
X029504Y010431D01*
X029717Y010431D01*
X029824Y010324D01*
X030041Y010324D02*
X030148Y010217D01*
X030148Y010431D01*
X030362Y010431D01*
X030362Y010217D01*
X030148Y010217D01*
X030041Y010110D02*
X030148Y010004D01*
X030362Y010004D01*
X030468Y010110D01*
X030468Y010537D01*
X030362Y010644D01*
X030148Y010644D01*
X030041Y010537D01*
X030041Y010324D01*
X029824Y010644D02*
X029824Y010004D01*
X030686Y010110D02*
X030686Y010324D01*
X030793Y010431D01*
X031113Y010431D01*
X031113Y010644D02*
X031113Y010004D01*
X030793Y010004D01*
X030686Y010110D01*
X031329Y009897D02*
X031329Y010431D01*
X031329Y010644D02*
X031329Y010751D01*
X031760Y010324D02*
X031760Y010004D01*
X031974Y010004D02*
X031974Y010324D01*
X031867Y010431D01*
X031760Y010324D01*
X031974Y010324D02*
X032080Y010431D01*
X032187Y010431D01*
X032187Y010004D01*
X031542Y009790D02*
X031436Y009790D01*
X031329Y009897D01*
D14*
X030134Y012551D03*
X030134Y012561D03*
X027474Y012981D03*
X025464Y011401D03*
X025974Y010981D03*
X028504Y014821D03*
X028464Y015571D03*
X027784Y015551D03*
X027684Y016321D03*
X026444Y016251D03*
X025964Y015331D03*
X031164Y014831D03*
D15*
X029594Y016431D03*
X028824Y016921D03*
X028804Y016921D03*
X027914Y016781D03*
X026674Y016431D03*
X026434Y016271D03*
X025944Y015351D03*
X025644Y015071D03*
X025314Y014711D03*
X025204Y014581D03*
X024854Y013881D03*
X024974Y013821D03*
X025314Y013521D03*
X025524Y013331D03*
X025724Y013181D03*
X025724Y013171D03*
X025744Y013181D03*
X025784Y013161D03*
X025844Y013101D03*
X025944Y013091D03*
X026164Y013491D03*
X026534Y013531D03*
X026594Y013501D03*
X026614Y013491D03*
X026634Y013481D03*
X026724Y013421D03*
X026754Y013401D03*
X027054Y013221D03*
X027084Y013191D03*
X027174Y013141D03*
X027434Y012981D03*
X027694Y013481D03*
X027434Y013631D03*
X027364Y013671D03*
X027354Y013681D03*
X027334Y013691D03*
X027254Y013741D03*
X027094Y013841D03*
X027074Y013851D03*
X026934Y013931D03*
X026934Y013941D03*
X026914Y013941D03*
X026764Y014031D03*
X026804Y014151D03*
X026794Y014161D03*
X027014Y014301D03*
X026984Y014481D03*
X026974Y014491D03*
X026854Y014601D03*
X026754Y014681D03*
X026664Y014781D03*
X026534Y014891D03*
X026354Y015101D03*
X026324Y015101D03*
X027204Y015361D03*
X028274Y015591D03*
X028834Y015401D03*
X028264Y013531D03*
X028614Y012921D03*
X028704Y012861D03*
X028924Y012761D03*
X028994Y012741D03*
X029034Y012731D03*
X029084Y012731D03*
X029184Y012721D03*
X029204Y012721D03*
X029324Y012711D03*
X029384Y012731D03*
X029594Y012471D03*
X029614Y012471D03*
X029654Y012471D03*
X029674Y012461D03*
X029714Y012451D03*
X030174Y012551D03*
X030064Y012051D03*
X030074Y011991D03*
X029954Y011721D03*
X029824Y011601D03*
X029784Y011581D03*
X029734Y011561D03*
X029694Y011551D03*
X029614Y011531D03*
X029264Y011621D03*
X029134Y011391D03*
X029114Y011391D03*
X029094Y011401D03*
X029324Y011261D03*
X029514Y011161D03*
X029554Y011141D03*
X029624Y011071D03*
X029774Y010991D03*
X029984Y011211D03*
X030024Y011241D03*
X030054Y011251D03*
X030054Y011321D03*
X030064Y011351D03*
X030114Y011381D03*
X030174Y011421D03*
X030414Y012041D03*
X030554Y012101D03*
X028854Y011861D03*
X028854Y011851D03*
X028854Y011841D03*
X028784Y012011D03*
X028754Y012061D03*
X028714Y012121D03*
X028464Y012361D03*
X028384Y012421D03*
X028134Y012561D03*
X028834Y011561D03*
X025894Y012041D03*
D16*
X025479Y011431D03*
X025989Y010991D03*
X029599Y012861D03*
X031149Y014791D03*
X028589Y016301D03*
X027959Y015611D03*
D17*
X027959Y015601D03*
X028579Y016321D03*
X026659Y016451D03*
X027969Y013541D03*
X028619Y012901D03*
X029599Y012881D03*
X029819Y012431D03*
X029779Y011001D03*
X025899Y013091D03*
X030649Y014051D03*
D18*
X031129Y014741D03*
X029819Y016081D03*
X029819Y016091D03*
X029809Y016111D03*
X029809Y016121D03*
X029809Y016131D03*
X029809Y016141D03*
X029799Y016161D03*
X029799Y016171D03*
X029799Y016181D03*
X029799Y016191D03*
X029789Y016201D03*
X029789Y016211D03*
X028599Y016281D03*
X028449Y015531D03*
X027809Y015511D03*
X027669Y016281D03*
X026649Y016481D03*
X026469Y016211D03*
X026469Y016201D03*
X026459Y016181D03*
X026459Y016171D03*
X026459Y016161D03*
X026449Y016151D03*
X026449Y016141D03*
X026439Y016091D03*
X026429Y016061D03*
X026429Y016051D03*
X026429Y016041D03*
X027769Y014791D03*
X025909Y013111D03*
X027459Y013001D03*
X027469Y013011D03*
X029609Y012851D03*
X029099Y011441D03*
X026009Y011001D03*
X025509Y011491D03*
D19*
X025464Y011411D03*
X029114Y011411D03*
X029784Y011011D03*
X030444Y012401D03*
X031164Y014821D03*
X029814Y016241D03*
X029604Y016451D03*
X028584Y016311D03*
X028284Y015611D03*
X027684Y016311D03*
D20*
X027659Y016271D03*
X026419Y015921D03*
X026419Y015911D03*
X026419Y015891D03*
X028139Y014431D03*
X028489Y014781D03*
X029839Y015931D03*
X029839Y015941D03*
X029829Y016011D03*
X029829Y016021D03*
X030549Y015201D03*
X031119Y014721D03*
X030169Y012511D03*
X029789Y012461D03*
X025909Y013121D03*
X025519Y011511D03*
X026019Y011011D03*
D21*
X025484Y011441D03*
X027954Y013551D03*
X028314Y013551D03*
X028494Y014801D03*
X027764Y014801D03*
X027794Y015521D03*
X028594Y016291D03*
X026654Y016471D03*
X031144Y014781D03*
X030154Y012531D03*
X029104Y011431D03*
X029784Y011021D03*
D22*
X029089Y011461D03*
X027469Y013031D03*
X025539Y011561D03*
X025539Y011551D03*
X026039Y011021D03*
X031099Y014661D03*
X031099Y014671D03*
X030519Y015181D03*
X029799Y015681D03*
X029799Y015691D03*
X029809Y015711D03*
X029809Y015721D03*
X029809Y015731D03*
X029599Y016521D03*
X029589Y016531D03*
X029579Y016541D03*
X026699Y016551D03*
X026689Y016541D03*
X026679Y016531D03*
X026449Y015721D03*
X026459Y015701D03*
X026459Y015691D03*
X026459Y015681D03*
X026469Y015661D03*
X026479Y015641D03*
D23*
X026424Y015901D03*
X026424Y015931D03*
X026424Y015941D03*
X026424Y015951D03*
X026424Y015961D03*
X026424Y015971D03*
X026424Y015981D03*
X026424Y015991D03*
X026424Y016001D03*
X026424Y016011D03*
X026424Y016021D03*
X026424Y016031D03*
X026434Y016071D03*
X026434Y016081D03*
X026444Y016101D03*
X026444Y016111D03*
X026444Y016121D03*
X026444Y016131D03*
X026464Y016191D03*
X025954Y015301D03*
X028494Y014791D03*
X028334Y013561D03*
X027934Y013561D03*
X028624Y012871D03*
X028614Y012861D03*
X029784Y011031D03*
X025514Y011501D03*
X031124Y014731D03*
X029834Y015951D03*
X029834Y015961D03*
X029834Y015971D03*
X029834Y015981D03*
X029834Y015991D03*
X029834Y016001D03*
X029824Y016031D03*
X029824Y016041D03*
X029824Y016051D03*
X029824Y016061D03*
X029824Y016071D03*
X029814Y016101D03*
X029804Y016151D03*
X028604Y016271D03*
D24*
X028614Y016241D03*
X028444Y015501D03*
X027964Y015641D03*
X027814Y015491D03*
X027784Y014771D03*
X026474Y015651D03*
X026464Y015671D03*
X026714Y016561D03*
X029564Y016551D03*
X029794Y015671D03*
X029794Y015661D03*
X029784Y015641D03*
X031094Y014651D03*
X028624Y012851D03*
X029774Y012471D03*
X029094Y011471D03*
X029774Y011051D03*
X026054Y011031D03*
X025554Y011571D03*
D25*
X025529Y011531D03*
X028349Y013571D03*
X029609Y012841D03*
X030169Y012501D03*
X029779Y011041D03*
X031109Y014691D03*
X029819Y015761D03*
X029819Y015771D03*
X029819Y015781D03*
X029829Y015801D03*
X029829Y015811D03*
X029829Y015821D03*
X029829Y015831D03*
X029619Y016501D03*
X028609Y016261D03*
X028279Y015641D03*
X027809Y015501D03*
X027659Y016261D03*
X026669Y016521D03*
X026649Y016501D03*
X026429Y015841D03*
X026439Y015781D03*
X026439Y015771D03*
X026439Y015761D03*
X026449Y015741D03*
X025949Y015271D03*
X027769Y014781D03*
D26*
X028474Y014761D03*
X029014Y015381D03*
X028454Y015481D03*
X027804Y015471D03*
X027244Y015381D03*
X026504Y015571D03*
X026504Y015581D03*
X026494Y015591D03*
X026494Y015601D03*
X026484Y015611D03*
X026484Y015621D03*
X026744Y016581D03*
X026754Y016591D03*
X027644Y016231D03*
X028624Y016231D03*
X029514Y016591D03*
X029524Y016581D03*
X029774Y015621D03*
X029764Y015601D03*
X029764Y015591D03*
X029754Y015571D03*
X030504Y015171D03*
X031074Y014621D03*
X031074Y014611D03*
X031084Y014631D03*
X029604Y012821D03*
X030184Y012481D03*
X029774Y011061D03*
X026064Y011041D03*
X025574Y011611D03*
X025884Y013171D03*
X025304Y014571D03*
D27*
X026509Y015561D03*
X026769Y016601D03*
X027799Y015461D03*
X028269Y015651D03*
X028469Y015461D03*
X027789Y014761D03*
X027889Y013591D03*
X028629Y012841D03*
X029079Y011481D03*
X026079Y011051D03*
X025569Y011601D03*
X025579Y011621D03*
X025889Y013181D03*
X029759Y015581D03*
X030489Y015161D03*
X031069Y014601D03*
X029499Y016601D03*
D28*
X029739Y015541D03*
X029729Y015531D03*
X028999Y015391D03*
X028479Y015441D03*
X027639Y016221D03*
X027259Y015391D03*
X026539Y015511D03*
X026529Y015521D03*
X025969Y015261D03*
X027389Y014011D03*
X027409Y013981D03*
X027429Y013951D03*
X027429Y013941D03*
X027439Y013931D03*
X027459Y013911D03*
X027469Y013891D03*
X027479Y013881D03*
X027499Y013861D03*
X027519Y013841D03*
X027549Y013811D03*
X028769Y013871D03*
X028829Y013931D03*
X028629Y012831D03*
X028999Y011861D03*
X028999Y011841D03*
X029079Y011491D03*
X030199Y012461D03*
X031049Y014571D03*
X031059Y014581D03*
X030479Y015151D03*
X025599Y011651D03*
X025589Y011641D03*
X026089Y011061D03*
D29*
X025584Y011631D03*
X027464Y013041D03*
X028384Y013591D03*
X027794Y014751D03*
X027794Y015441D03*
X027794Y015451D03*
X028474Y015451D03*
X028624Y016221D03*
X029484Y016611D03*
X029744Y015561D03*
X029744Y015551D03*
X031064Y014591D03*
X030194Y012471D03*
X029764Y011071D03*
X026524Y015531D03*
X026524Y015541D03*
X026514Y015551D03*
X026784Y016611D03*
D30*
X026804Y016621D03*
X026814Y016631D03*
X027634Y016211D03*
X028634Y016211D03*
X028634Y016201D03*
X028844Y016911D03*
X029464Y016621D03*
X029724Y015521D03*
X029724Y015511D03*
X028984Y015401D03*
X028484Y015431D03*
X028464Y014751D03*
X028884Y014011D03*
X028874Y013991D03*
X028864Y013981D03*
X028854Y013961D03*
X028844Y013951D03*
X028834Y013941D03*
X028814Y013921D03*
X028814Y013911D03*
X028804Y013901D03*
X028794Y013891D03*
X028784Y013881D03*
X028764Y013861D03*
X028754Y013851D03*
X028744Y013841D03*
X028734Y013831D03*
X028724Y013821D03*
X028704Y013801D03*
X028394Y013601D03*
X027874Y013601D03*
X027564Y013801D03*
X027544Y013821D03*
X027534Y013831D03*
X027514Y013851D03*
X027494Y013871D03*
X027464Y013901D03*
X027444Y013921D03*
X027424Y013961D03*
X027414Y013971D03*
X027404Y013991D03*
X027394Y014001D03*
X027384Y014021D03*
X027374Y014031D03*
X027374Y014041D03*
X027364Y014051D03*
X027344Y014091D03*
X027464Y013051D03*
X025934Y012011D03*
X025614Y011671D03*
X025604Y011661D03*
X026104Y011071D03*
X028994Y011831D03*
X029004Y011851D03*
X028994Y011871D03*
X028994Y011881D03*
X028984Y011891D03*
X028984Y011901D03*
X028984Y011921D03*
X029624Y012811D03*
X030194Y012451D03*
X030224Y011991D03*
X030224Y011981D03*
X029764Y011091D03*
X029764Y011081D03*
X031034Y014541D03*
X031044Y014551D03*
X031044Y014561D03*
X030464Y015141D03*
X027784Y015431D03*
X026554Y015481D03*
X026544Y015501D03*
D31*
X026549Y015491D03*
X026569Y015461D03*
X027779Y015421D03*
X028489Y015421D03*
X029709Y015491D03*
X029709Y015501D03*
X030449Y015131D03*
X031029Y014531D03*
X028909Y014051D03*
X028889Y014021D03*
X028879Y014001D03*
X028859Y013971D03*
X028709Y013811D03*
X028689Y013791D03*
X028679Y013781D03*
X028669Y013771D03*
X028659Y013761D03*
X028639Y013751D03*
X027599Y013771D03*
X027589Y013781D03*
X027579Y013791D03*
X027359Y014061D03*
X027359Y014071D03*
X027349Y014081D03*
X027339Y014101D03*
X027339Y014111D03*
X027329Y014121D03*
X027329Y014131D03*
X027329Y014141D03*
X027319Y014151D03*
X027309Y014181D03*
X027469Y013061D03*
X028969Y011961D03*
X028979Y011931D03*
X029079Y011501D03*
X030219Y011941D03*
X030219Y011961D03*
X030219Y012001D03*
X030219Y012021D03*
X030219Y012031D03*
X030219Y012061D03*
X026129Y011091D03*
X026119Y011081D03*
X029449Y016631D03*
D32*
X029434Y016641D03*
X028964Y015601D03*
X028974Y015571D03*
X028974Y015561D03*
X028974Y015551D03*
X028974Y015541D03*
X028974Y015531D03*
X028974Y015521D03*
X028974Y015511D03*
X028974Y015501D03*
X028974Y015461D03*
X028494Y015411D03*
X027774Y015411D03*
X027284Y015531D03*
X027284Y015541D03*
X027294Y015581D03*
X027294Y015591D03*
X027294Y015601D03*
X027634Y016201D03*
X026834Y016641D03*
X026564Y015471D03*
X028134Y014441D03*
X028614Y013741D03*
X028604Y013731D03*
X028404Y013611D03*
X027864Y013611D03*
X027624Y013751D03*
X027614Y013761D03*
X027314Y014161D03*
X027314Y014171D03*
X027304Y014191D03*
X027304Y014201D03*
X027294Y014221D03*
X027294Y014231D03*
X028894Y014031D03*
X028904Y014041D03*
X028914Y014061D03*
X028914Y014071D03*
X028924Y014081D03*
X028924Y014091D03*
X028934Y014101D03*
X028944Y014121D03*
X028944Y014131D03*
X028954Y014151D03*
X028964Y014181D03*
X030434Y015121D03*
X029704Y015481D03*
X029694Y015471D03*
X031024Y014521D03*
X029624Y012801D03*
X030224Y012051D03*
X030214Y012041D03*
X030224Y011971D03*
X030214Y011951D03*
X030214Y011931D03*
X030214Y011921D03*
X030214Y011911D03*
X030204Y011891D03*
X030204Y011881D03*
X029764Y011101D03*
X028994Y011791D03*
X028994Y011811D03*
X028994Y011821D03*
X028984Y011911D03*
X028974Y011941D03*
X028964Y011951D03*
X026374Y011411D03*
X026374Y011401D03*
X026374Y011391D03*
X026374Y011381D03*
X026154Y011111D03*
X026144Y011101D03*
X025624Y011681D03*
D33*
X026374Y011451D03*
X026374Y011441D03*
X026364Y011351D03*
X026354Y011331D03*
X026224Y011171D03*
X026204Y011151D03*
X026194Y011141D03*
X028954Y011981D03*
X028954Y011991D03*
X028954Y012001D03*
X028954Y012011D03*
X029764Y011111D03*
X030174Y011781D03*
X030184Y011811D03*
X030194Y011851D03*
X030204Y012431D03*
X030204Y012441D03*
X028574Y013711D03*
X028414Y013621D03*
X027844Y013621D03*
X027694Y013711D03*
X027284Y014271D03*
X027284Y014281D03*
X027284Y014291D03*
X027274Y014311D03*
X027274Y014321D03*
X027274Y014331D03*
X027764Y015401D03*
X027314Y015671D03*
X027324Y015701D03*
X027324Y015711D03*
X027334Y015721D03*
X027334Y015731D03*
X027344Y015741D03*
X027624Y016181D03*
X026854Y016651D03*
X026584Y015441D03*
X026594Y015431D03*
X028504Y015401D03*
X028934Y015711D03*
X028934Y015731D03*
X028914Y015751D03*
X029674Y015441D03*
X028644Y016181D03*
X029414Y016651D03*
X028994Y014311D03*
X028994Y014301D03*
X028984Y014281D03*
X028984Y014271D03*
X028984Y014261D03*
X028984Y014251D03*
X031004Y014491D03*
D34*
X030994Y014481D03*
X030984Y014471D03*
X030374Y015071D03*
X030364Y015061D03*
X029664Y015431D03*
X029654Y015421D03*
X029644Y015411D03*
X028904Y015781D03*
X028894Y015811D03*
X028884Y015821D03*
X028884Y015831D03*
X028644Y016161D03*
X028644Y016171D03*
X027624Y016171D03*
X027384Y015831D03*
X027374Y015821D03*
X027374Y015811D03*
X027364Y015801D03*
X027364Y015791D03*
X027354Y015771D03*
X026614Y015401D03*
X026604Y015411D03*
X025984Y015241D03*
X027264Y014391D03*
X027844Y013631D03*
X028424Y013631D03*
X028534Y013691D03*
X029004Y014371D03*
X029004Y014381D03*
X029004Y014391D03*
X029004Y014401D03*
X028514Y015391D03*
X029634Y012781D03*
X028944Y012041D03*
X028944Y012031D03*
X029004Y011751D03*
X029004Y011741D03*
X029064Y011521D03*
X029764Y011121D03*
X030134Y011701D03*
X030144Y011711D03*
X030144Y011721D03*
X030144Y011731D03*
X030154Y011741D03*
X030154Y011761D03*
X030164Y011771D03*
X030174Y011791D03*
X026284Y011231D03*
X026274Y011221D03*
X026264Y011211D03*
X026254Y011201D03*
X026244Y011191D03*
X026234Y011181D03*
D35*
X026179Y011131D03*
X026169Y011121D03*
X026359Y011341D03*
X026369Y011361D03*
X026369Y011371D03*
X026379Y011421D03*
X026379Y011431D03*
X025629Y011691D03*
X027659Y013731D03*
X027649Y013741D03*
X027679Y013721D03*
X027299Y014211D03*
X027289Y014241D03*
X027289Y014251D03*
X027289Y014261D03*
X027279Y015401D03*
X027279Y015411D03*
X027279Y015421D03*
X027279Y015431D03*
X027279Y015441D03*
X027279Y015451D03*
X027279Y015461D03*
X027279Y015471D03*
X027279Y015481D03*
X027279Y015491D03*
X027279Y015501D03*
X027279Y015511D03*
X027279Y015521D03*
X027289Y015551D03*
X027289Y015561D03*
X027289Y015571D03*
X027299Y015611D03*
X027299Y015621D03*
X027299Y015631D03*
X027309Y015641D03*
X027309Y015651D03*
X027309Y015661D03*
X027319Y015681D03*
X027319Y015691D03*
X027979Y015651D03*
X027629Y016191D03*
X028639Y016191D03*
X028939Y015701D03*
X028939Y015691D03*
X028939Y015681D03*
X028949Y015671D03*
X028949Y015661D03*
X028949Y015651D03*
X028959Y015641D03*
X028959Y015631D03*
X028959Y015621D03*
X028959Y015611D03*
X028969Y015591D03*
X028969Y015581D03*
X028979Y015491D03*
X028979Y015481D03*
X028979Y015471D03*
X028979Y015451D03*
X028979Y015441D03*
X028979Y015431D03*
X028979Y015421D03*
X028979Y015411D03*
X029679Y015451D03*
X029689Y015461D03*
X030419Y015111D03*
X031019Y014511D03*
X031009Y014501D03*
X028979Y014241D03*
X028979Y014231D03*
X028979Y014221D03*
X028969Y014211D03*
X028969Y014201D03*
X028969Y014191D03*
X028959Y014171D03*
X028959Y014161D03*
X028949Y014141D03*
X028939Y014111D03*
X028589Y013721D03*
X028639Y012821D03*
X029619Y012791D03*
X030219Y012011D03*
X030209Y011901D03*
X030199Y011871D03*
X030199Y011861D03*
X030199Y011841D03*
X030189Y011831D03*
X030179Y011801D03*
X028999Y011801D03*
X028999Y011781D03*
X028999Y011771D03*
X028969Y011971D03*
X026579Y015451D03*
X025989Y015251D03*
D36*
X027389Y015841D03*
X027749Y015381D03*
X028859Y015871D03*
X028869Y015861D03*
X028869Y015851D03*
X028879Y015841D03*
X029639Y015401D03*
X030189Y014851D03*
X028509Y013681D03*
X027739Y013691D03*
X027269Y014401D03*
X027269Y014411D03*
X027269Y014421D03*
X025849Y013211D03*
X026359Y011501D03*
X026359Y011491D03*
X029009Y011721D03*
X029009Y011731D03*
X029759Y011131D03*
X030129Y011691D03*
X030159Y011751D03*
X030209Y012421D03*
X029639Y012771D03*
X029389Y016661D03*
D37*
X028819Y015931D03*
X028849Y015891D03*
X028519Y015381D03*
X029629Y015391D03*
X030209Y014891D03*
X030209Y014881D03*
X030199Y014871D03*
X030219Y014901D03*
X030259Y014951D03*
X030269Y014961D03*
X030279Y014971D03*
X030289Y014981D03*
X030299Y014991D03*
X030299Y015001D03*
X030309Y015011D03*
X030319Y015021D03*
X030169Y014821D03*
X030169Y014811D03*
X028999Y014511D03*
X028999Y014501D03*
X028439Y013641D03*
X027829Y013641D03*
X027269Y014491D03*
X027269Y014501D03*
X027269Y014511D03*
X026639Y015381D03*
X027429Y015911D03*
X027439Y015921D03*
X027609Y016151D03*
X030199Y012401D03*
X030119Y011671D03*
X029759Y011141D03*
X029059Y011531D03*
X029019Y011691D03*
X028939Y012051D03*
X028939Y012071D03*
X026349Y011521D03*
D38*
X026339Y011541D03*
X025839Y013231D03*
X027459Y013081D03*
X027819Y013651D03*
X027809Y013661D03*
X028449Y013651D03*
X028999Y014521D03*
X028999Y014551D03*
X028999Y014561D03*
X030149Y014781D03*
X028659Y016131D03*
X027609Y016131D03*
X027469Y015961D03*
X027459Y015951D03*
X027739Y015361D03*
X027269Y014551D03*
X027269Y014541D03*
X028639Y012801D03*
X029019Y011681D03*
X029059Y011561D03*
X029049Y011551D03*
X029749Y011151D03*
D39*
X029734Y011161D03*
X030094Y011651D03*
X028454Y013661D03*
X028994Y014571D03*
X028994Y014581D03*
X028994Y014591D03*
X029594Y015361D03*
X030144Y014771D03*
X030144Y014761D03*
X028784Y015971D03*
X028774Y015981D03*
X028764Y015991D03*
X028654Y016121D03*
X028854Y016901D03*
X027604Y016121D03*
X027484Y015981D03*
X027474Y015971D03*
X027734Y015351D03*
X027274Y014581D03*
X027274Y014571D03*
X027274Y014561D03*
X026654Y015361D03*
X026914Y016671D03*
X026334Y011561D03*
X026334Y011551D03*
D40*
X026369Y011481D03*
X026369Y011471D03*
X026369Y011461D03*
X026349Y011321D03*
X026339Y011311D03*
X026339Y011301D03*
X026329Y011291D03*
X026319Y011281D03*
X026319Y011271D03*
X026309Y011261D03*
X026299Y011251D03*
X026289Y011241D03*
X026209Y011161D03*
X025639Y011701D03*
X025859Y013191D03*
X025859Y013201D03*
X027469Y013071D03*
X027719Y013701D03*
X027279Y014301D03*
X027269Y014341D03*
X027269Y014351D03*
X027269Y014361D03*
X027269Y014371D03*
X027269Y014381D03*
X027809Y014741D03*
X028449Y014741D03*
X028999Y014361D03*
X028999Y014351D03*
X028999Y014341D03*
X028999Y014331D03*
X028999Y014321D03*
X028989Y014291D03*
X028549Y013701D03*
X030389Y015081D03*
X030399Y015091D03*
X030409Y015101D03*
X028929Y015721D03*
X028919Y015741D03*
X028909Y015761D03*
X028909Y015771D03*
X028899Y015791D03*
X028899Y015801D03*
X027759Y015391D03*
X027349Y015751D03*
X027349Y015761D03*
X027359Y015781D03*
X026599Y015421D03*
X027399Y016901D03*
X028949Y012021D03*
X028989Y011761D03*
X029069Y011511D03*
X030189Y011821D03*
D41*
X030094Y011641D03*
X030054Y011601D03*
X029734Y011171D03*
X029024Y011641D03*
X029024Y011651D03*
X028934Y012111D03*
X026334Y011571D03*
X025844Y013251D03*
X027284Y014621D03*
X027294Y014651D03*
X028134Y014451D03*
X028974Y014661D03*
X028984Y014651D03*
X028984Y014631D03*
X028534Y015351D03*
X028754Y016001D03*
X028744Y016011D03*
X028734Y016021D03*
X028664Y016101D03*
X028664Y016111D03*
X027594Y016101D03*
X026684Y015341D03*
X025984Y015211D03*
X030144Y014751D03*
D42*
X030594Y015231D03*
X029824Y016261D03*
X029604Y016441D03*
X026254Y015171D03*
X027464Y012971D03*
X029564Y012461D03*
X029674Y011531D03*
X029124Y011401D03*
X029504Y011171D03*
D43*
X029719Y011181D03*
X029039Y011611D03*
X028919Y012151D03*
X028919Y012161D03*
X030299Y012091D03*
X028949Y014741D03*
X028949Y014751D03*
X029539Y015321D03*
X028129Y015901D03*
X028129Y015911D03*
X028129Y015921D03*
X028129Y015931D03*
X028129Y015941D03*
X028129Y015951D03*
X028129Y015961D03*
X028129Y015971D03*
X028129Y015981D03*
X028129Y015991D03*
X028129Y016001D03*
X028129Y016011D03*
X028129Y016021D03*
X028129Y016031D03*
X028129Y016041D03*
X027579Y016061D03*
X027399Y016891D03*
X026719Y015311D03*
X025979Y015171D03*
X027319Y014731D03*
X027329Y014741D03*
X026309Y011611D03*
D44*
X026304Y011621D03*
X027454Y013121D03*
X028914Y012171D03*
X029994Y011561D03*
X030314Y012111D03*
X030264Y012381D03*
X029714Y011191D03*
X030154Y014651D03*
X030144Y014661D03*
X029504Y015301D03*
X028924Y014801D03*
X028914Y014811D03*
X028564Y015321D03*
X027704Y015311D03*
X027354Y014801D03*
X028124Y016121D03*
D45*
X027689Y016331D03*
X027299Y016671D03*
X027419Y016911D03*
X028569Y016331D03*
X028859Y016921D03*
X028469Y015581D03*
X027969Y015581D03*
X027779Y015561D03*
X027759Y014831D03*
X028509Y014831D03*
X027829Y013391D03*
X027879Y013361D03*
X027249Y013091D03*
X027409Y012991D03*
X028609Y012911D03*
X029279Y012711D03*
X029599Y012891D03*
X029669Y012861D03*
X029739Y012821D03*
X030129Y012571D03*
X029829Y012421D03*
X030439Y012041D03*
X030479Y012041D03*
X029509Y011531D03*
X029479Y011531D03*
X029449Y011191D03*
X025459Y011381D03*
X024879Y013861D03*
X024879Y013881D03*
X026559Y014861D03*
X026059Y015271D03*
X026929Y014251D03*
X030599Y014051D03*
X031169Y014841D03*
D46*
X030159Y014641D03*
X029489Y015291D03*
X028899Y014841D03*
X028129Y015761D03*
X028129Y015771D03*
X028129Y015781D03*
X028129Y016161D03*
X028129Y016171D03*
X028129Y016181D03*
X028129Y016191D03*
X027369Y014841D03*
X027369Y014831D03*
X030269Y012371D03*
X030319Y012141D03*
X029969Y011551D03*
X029699Y011211D03*
X029699Y011201D03*
D47*
X029699Y011221D03*
X030319Y012221D03*
X028899Y012241D03*
X026269Y011671D03*
X025799Y013351D03*
X025989Y015131D03*
X025999Y015141D03*
X027679Y015291D03*
X028119Y015671D03*
X028129Y015681D03*
X028129Y015691D03*
X028129Y016261D03*
X029449Y015281D03*
X030179Y014591D03*
D48*
X030184Y014571D03*
X028594Y015291D03*
X028124Y016291D03*
X027394Y016871D03*
X027344Y014861D03*
X025994Y015121D03*
X025984Y015111D03*
X025984Y015101D03*
X025784Y013371D03*
X029694Y011231D03*
X030324Y012241D03*
X030324Y012251D03*
X030314Y012261D03*
X030284Y012331D03*
D49*
X030289Y012321D03*
X030299Y012301D03*
X030309Y012271D03*
X030319Y012231D03*
X029689Y011241D03*
X028889Y012261D03*
X028889Y012271D03*
X026259Y011691D03*
X028919Y014871D03*
X028129Y016301D03*
D50*
X028124Y016331D03*
X029404Y015271D03*
X030194Y014551D03*
X027334Y014871D03*
X028894Y012281D03*
X029704Y011251D03*
X026244Y011701D03*
D51*
X027454Y013181D03*
X028134Y014491D03*
X028934Y014891D03*
X028624Y015281D03*
X028124Y016361D03*
X027764Y016641D03*
X028854Y016861D03*
X026014Y015091D03*
X025774Y013421D03*
X028884Y012301D03*
X029684Y011261D03*
D52*
X029674Y011271D03*
X028884Y012311D03*
X030214Y014521D03*
X028124Y016381D03*
X027744Y016651D03*
X027324Y014891D03*
X026014Y015071D03*
X026004Y015081D03*
D53*
X025774Y013441D03*
X028884Y012321D03*
X029664Y011291D03*
X029664Y011281D03*
X030224Y014511D03*
X028124Y016391D03*
X027714Y016661D03*
X027394Y016851D03*
D54*
X028949Y014911D03*
X029009Y013561D03*
X028979Y013541D03*
X028849Y013461D03*
X028819Y013441D03*
X028789Y013421D03*
X028699Y013361D03*
X028679Y013351D03*
X028579Y013281D03*
X029679Y011341D03*
X029659Y011321D03*
X029649Y011301D03*
X025769Y013461D03*
X025769Y013471D03*
D55*
X027634Y012681D03*
X027884Y012841D03*
X027964Y012891D03*
X027994Y012911D03*
X028104Y012981D03*
X028224Y013061D03*
X028244Y013071D03*
X028264Y013081D03*
X028294Y013101D03*
X028324Y013121D03*
X028344Y013131D03*
X028374Y013151D03*
X028384Y013161D03*
X028404Y013171D03*
X028464Y013211D03*
X028494Y013231D03*
X028544Y013261D03*
X028594Y013291D03*
X028604Y013301D03*
X028624Y013311D03*
X028654Y013331D03*
X028664Y013341D03*
X028714Y013371D03*
X028724Y013381D03*
X028744Y013391D03*
X028764Y013401D03*
X028774Y013411D03*
X028804Y013431D03*
X028834Y013451D03*
X028864Y013471D03*
X028884Y013481D03*
X028904Y013491D03*
X028914Y013501D03*
X028934Y013511D03*
X028944Y013521D03*
X028964Y013531D03*
X028994Y013551D03*
X029024Y013571D03*
X029044Y013581D03*
X029064Y013591D03*
X029074Y013601D03*
X029094Y013611D03*
X029104Y013621D03*
X029124Y013631D03*
X029134Y013641D03*
X029154Y013651D03*
X029164Y013661D03*
X029184Y013671D03*
X029194Y013681D03*
X029214Y013691D03*
X029224Y013701D03*
X029274Y013731D03*
X028134Y014511D03*
X027394Y016841D03*
X029794Y011511D03*
X029774Y011471D03*
X029734Y011391D03*
X029674Y011331D03*
X029664Y011311D03*
D56*
X029679Y011351D03*
X029689Y011361D03*
X025769Y013451D03*
X025999Y015061D03*
X027319Y014901D03*
X028129Y016401D03*
X028549Y016671D03*
X028859Y016851D03*
D57*
X028124Y016411D03*
X027694Y016671D03*
X025994Y015051D03*
X025994Y015041D03*
X028134Y014501D03*
X027464Y013201D03*
X028884Y012331D03*
X029704Y011381D03*
X029694Y011371D03*
X030234Y014501D03*
D58*
X030499Y014051D03*
X028279Y015601D03*
X027959Y015591D03*
X027759Y014821D03*
X025959Y015341D03*
X026439Y016261D03*
X026669Y016441D03*
X029819Y016251D03*
X029439Y011531D03*
X025459Y011391D03*
D59*
X027014Y012291D03*
X027034Y012301D03*
X027094Y012341D03*
X027124Y012361D03*
X027144Y012371D03*
X027154Y012381D03*
X027164Y012391D03*
X027184Y012401D03*
X027214Y012421D03*
X027234Y012431D03*
X027254Y012441D03*
X027284Y012461D03*
X027294Y012471D03*
X027314Y012481D03*
X027334Y012491D03*
X027344Y012501D03*
X027374Y012521D03*
X027394Y012531D03*
X027404Y012541D03*
X027424Y012551D03*
X027454Y012571D03*
X027504Y012601D03*
X027524Y012611D03*
X027534Y012621D03*
X027554Y012631D03*
X027584Y012651D03*
X027594Y012661D03*
X027614Y012671D03*
X027674Y012711D03*
X027744Y012751D03*
X027854Y012821D03*
X029324Y013761D03*
X029354Y013781D03*
X029464Y013851D03*
X028664Y015271D03*
X028854Y016841D03*
X025994Y015031D03*
X025764Y013481D03*
X029744Y011401D03*
X029754Y011411D03*
X029794Y011491D03*
D60*
X029779Y011441D03*
X029759Y011421D03*
X027719Y012741D03*
X027489Y012591D03*
X027199Y012411D03*
X027109Y012351D03*
X027079Y012331D03*
X027059Y012321D03*
X027049Y012311D03*
X026999Y012281D03*
X026989Y012271D03*
X026969Y012261D03*
X026929Y012241D03*
X026919Y012231D03*
X026899Y012221D03*
X025749Y013491D03*
X025989Y015021D03*
X028129Y016431D03*
X028949Y014921D03*
X029509Y013881D03*
X029499Y013871D03*
X029479Y013861D03*
X029449Y013841D03*
D61*
X028299Y013541D03*
X027469Y012991D03*
X029109Y011421D03*
X030449Y012051D03*
X031159Y014811D03*
X029609Y016461D03*
X028459Y015561D03*
X028459Y015551D03*
X027789Y015541D03*
X027759Y014811D03*
X028499Y014811D03*
X026449Y016241D03*
D62*
X026454Y016231D03*
X026654Y016461D03*
X027674Y016301D03*
X027794Y015531D03*
X028284Y015621D03*
X029804Y016231D03*
X030584Y015221D03*
X031154Y014801D03*
X029604Y012871D03*
X029804Y012441D03*
X030144Y012541D03*
X030444Y012391D03*
X028624Y012891D03*
X025474Y011421D03*
X025954Y015321D03*
D63*
X028124Y016441D03*
X030254Y014481D03*
X029594Y013931D03*
X029564Y013911D03*
X029544Y013901D03*
X029524Y013891D03*
X028874Y012351D03*
X029774Y011431D03*
X027474Y013221D03*
X026954Y012251D03*
X026884Y012211D03*
X026854Y012191D03*
X025754Y013501D03*
D64*
X027469Y013211D03*
X027759Y012761D03*
X027779Y012771D03*
X027789Y012781D03*
X027809Y012791D03*
X027819Y012801D03*
X027839Y012811D03*
X027869Y012831D03*
X027899Y012851D03*
X027909Y012861D03*
X027939Y012871D03*
X027949Y012881D03*
X027979Y012901D03*
X028009Y012921D03*
X028029Y012931D03*
X028039Y012941D03*
X028059Y012951D03*
X028069Y012961D03*
X028089Y012971D03*
X028119Y012991D03*
X028139Y013001D03*
X028149Y013011D03*
X028169Y013021D03*
X028179Y013031D03*
X028199Y013041D03*
X028209Y013051D03*
X028279Y013091D03*
X028309Y013111D03*
X028359Y013141D03*
X028419Y013181D03*
X028429Y013191D03*
X028449Y013201D03*
X028479Y013221D03*
X028509Y013241D03*
X028529Y013251D03*
X028559Y013271D03*
X028639Y013321D03*
X029239Y013711D03*
X029259Y013721D03*
X029289Y013741D03*
X029309Y013751D03*
X029339Y013771D03*
X029369Y013791D03*
X029389Y013801D03*
X029399Y013811D03*
X029419Y013821D03*
X029429Y013831D03*
X030239Y014491D03*
X027709Y012731D03*
X027689Y012721D03*
X027659Y012701D03*
X027649Y012691D03*
X027569Y012641D03*
X027469Y012581D03*
X027439Y012561D03*
X027359Y012511D03*
X027269Y012451D03*
X028879Y012341D03*
X029789Y011501D03*
X029779Y011481D03*
X029779Y011461D03*
X029769Y011451D03*
X027319Y014911D03*
X028129Y016421D03*
D65*
X027954Y015631D03*
X028444Y015521D03*
X029834Y015841D03*
X029834Y015851D03*
X029834Y015861D03*
X029834Y015871D03*
X029834Y015881D03*
X029834Y015891D03*
X029834Y015901D03*
X029834Y015911D03*
X029834Y015921D03*
X029614Y016491D03*
X031114Y014711D03*
X031114Y014701D03*
X027914Y013571D03*
X027474Y013021D03*
X025914Y013131D03*
X025904Y013141D03*
X025524Y011521D03*
X029094Y011451D03*
X025954Y015281D03*
X025944Y015291D03*
X026434Y015791D03*
X026434Y015801D03*
X026434Y015811D03*
X026434Y015821D03*
X026434Y015831D03*
X026424Y015851D03*
X026424Y015861D03*
X026424Y015871D03*
X026424Y015881D03*
X026644Y016491D03*
D66*
X026469Y016221D03*
X025949Y015311D03*
X027669Y016291D03*
X029609Y016471D03*
X029799Y016221D03*
X030569Y015211D03*
X031139Y014771D03*
X028619Y012881D03*
X029799Y012451D03*
X030449Y012061D03*
X025899Y012031D03*
X025489Y011461D03*
X025489Y011451D03*
X025919Y013101D03*
D67*
X025504Y011481D03*
X025494Y011471D03*
X030154Y012521D03*
X031134Y014751D03*
X031134Y014761D03*
X029614Y016481D03*
X028454Y015541D03*
X028284Y015631D03*
X027954Y015621D03*
D68*
X027744Y015371D03*
X027394Y015851D03*
X027394Y015861D03*
X027404Y015871D03*
X027414Y015881D03*
X027414Y015891D03*
X027424Y015901D03*
X027614Y016161D03*
X026884Y016661D03*
X026624Y015391D03*
X025984Y015231D03*
X027264Y014481D03*
X027264Y014471D03*
X027264Y014461D03*
X027264Y014451D03*
X027264Y014441D03*
X027264Y014431D03*
X027764Y013681D03*
X028644Y012811D03*
X028944Y012061D03*
X029004Y011711D03*
X030124Y011681D03*
X030204Y012411D03*
X029004Y014411D03*
X029004Y014421D03*
X029004Y014431D03*
X029004Y014441D03*
X029004Y014451D03*
X029004Y014461D03*
X029004Y014471D03*
X029004Y014481D03*
X029004Y014491D03*
X030174Y014831D03*
X030184Y014841D03*
X030194Y014861D03*
X030334Y015031D03*
X030344Y015041D03*
X030354Y015051D03*
X028854Y015881D03*
X028834Y015901D03*
X028834Y015911D03*
X028654Y016151D03*
X026354Y011511D03*
D69*
X025804Y013341D03*
X027354Y014851D03*
X028114Y015661D03*
X028584Y015301D03*
X028914Y014861D03*
X030174Y014601D03*
X028124Y016251D03*
X030324Y012191D03*
X030324Y012181D03*
X029904Y011521D03*
D70*
X029514Y011521D03*
X030174Y012491D03*
X031104Y014681D03*
X030534Y015191D03*
X029804Y015701D03*
X029814Y015741D03*
X029814Y015751D03*
X029824Y015791D03*
X029604Y016511D03*
X028614Y016251D03*
X028444Y015511D03*
X029034Y015371D03*
X028474Y014771D03*
X027224Y015371D03*
X026454Y015711D03*
X026444Y015731D03*
X026444Y015751D03*
X026664Y016511D03*
X027654Y016251D03*
X025894Y013161D03*
X025894Y013151D03*
X025904Y012021D03*
X025534Y011541D03*
D71*
X026299Y011631D03*
X025819Y013301D03*
X027359Y014811D03*
X027359Y014821D03*
X028129Y015801D03*
X028129Y015811D03*
X028129Y015821D03*
X028129Y016131D03*
X028129Y016141D03*
X028129Y016151D03*
X028909Y014821D03*
X028909Y012181D03*
X029949Y011531D03*
X030309Y012121D03*
D72*
X030204Y012391D03*
X029644Y012761D03*
X028934Y012081D03*
X029004Y011701D03*
X029014Y011671D03*
X029054Y011541D03*
X030104Y011661D03*
X028484Y013671D03*
X027784Y013671D03*
X027274Y014521D03*
X027274Y014531D03*
X026644Y015371D03*
X025974Y015221D03*
X027444Y015931D03*
X027454Y015941D03*
X027614Y016141D03*
X028654Y016141D03*
X028794Y015961D03*
X028804Y015951D03*
X028814Y015941D03*
X028824Y015921D03*
X028524Y015371D03*
X029604Y015371D03*
X029614Y015381D03*
X030224Y014911D03*
X030234Y014921D03*
X030244Y014931D03*
X030254Y014941D03*
X030164Y014801D03*
X030154Y014791D03*
X030964Y014461D03*
X028994Y014531D03*
X028994Y014541D03*
X025844Y013221D03*
X025674Y011711D03*
X026344Y011531D03*
X029364Y016671D03*
D73*
X028574Y015311D03*
X030164Y014631D03*
X027454Y013131D03*
X028904Y012211D03*
X028904Y012201D03*
X029944Y011541D03*
X030314Y012131D03*
X026004Y015161D03*
X027394Y016881D03*
D74*
X028124Y016061D03*
X028124Y016051D03*
X028124Y015891D03*
X028554Y015331D03*
X028934Y014781D03*
X028934Y014771D03*
X028944Y014761D03*
X029524Y015311D03*
X030144Y014681D03*
X029634Y012731D03*
X028644Y012781D03*
X027454Y013111D03*
X025824Y013291D03*
X027324Y014751D03*
X027334Y014761D03*
X027334Y014771D03*
X029304Y016681D03*
X030304Y012081D03*
X030004Y011571D03*
D75*
X029039Y011571D03*
X029029Y011631D03*
X026329Y011581D03*
X027289Y014641D03*
X027299Y014661D03*
X027299Y014671D03*
X028399Y014731D03*
X028969Y014681D03*
X028969Y014671D03*
X028979Y014641D03*
X029569Y015341D03*
X030139Y014741D03*
X030139Y014731D03*
X028719Y016031D03*
X027529Y016021D03*
X027519Y016011D03*
X025979Y015201D03*
D76*
X025979Y015191D03*
X027309Y014701D03*
X027319Y014721D03*
X027719Y015331D03*
X027549Y016041D03*
X027569Y016051D03*
X027589Y016081D03*
X028679Y016071D03*
X028959Y014721D03*
X028959Y014711D03*
X030139Y014711D03*
X030139Y014701D03*
X027459Y013101D03*
X025829Y013261D03*
X025829Y013271D03*
X026319Y011591D03*
X029039Y011591D03*
X029039Y011581D03*
X029049Y011601D03*
X030019Y011581D03*
D77*
X029619Y012831D03*
X028369Y013581D03*
X027899Y013581D03*
X025559Y011591D03*
X025559Y011581D03*
X026479Y015631D03*
X026729Y016571D03*
X027649Y016241D03*
X027809Y015481D03*
X028449Y015491D03*
X028459Y015471D03*
X029769Y015611D03*
X029779Y015631D03*
X029789Y015651D03*
X029549Y016561D03*
X029539Y016571D03*
X031089Y014641D03*
D78*
X030144Y014721D03*
X029554Y015331D03*
X028964Y014701D03*
X028964Y014691D03*
X027854Y014731D03*
X027304Y014691D03*
X027304Y014681D03*
X027724Y015341D03*
X027544Y016031D03*
X027594Y016091D03*
X028674Y016091D03*
X028674Y016081D03*
X028714Y016041D03*
X026694Y015331D03*
X028644Y012791D03*
X028924Y012131D03*
X029034Y011621D03*
X030034Y011591D03*
X029634Y012751D03*
D79*
X029634Y012741D03*
X028914Y012141D03*
X030294Y012071D03*
X030144Y014691D03*
X028954Y014731D03*
X028544Y015341D03*
X028694Y016051D03*
X028684Y016061D03*
X027584Y016071D03*
X026704Y015321D03*
X025984Y015181D03*
X027314Y014711D03*
X025824Y013281D03*
X026314Y011601D03*
D80*
X025839Y013241D03*
X027469Y013091D03*
X028929Y012121D03*
X028929Y012101D03*
X028929Y012091D03*
X029019Y011661D03*
X030059Y011611D03*
X030069Y011621D03*
X030079Y011631D03*
X028989Y014601D03*
X028989Y014611D03*
X028989Y014621D03*
X028529Y015361D03*
X029579Y015351D03*
X027599Y016111D03*
X027509Y016001D03*
X027499Y015991D03*
X026669Y015351D03*
X027289Y014631D03*
X027279Y014611D03*
X027279Y014601D03*
X027279Y014591D03*
D81*
X028134Y014461D03*
X028904Y014831D03*
X028134Y015791D03*
X028854Y016891D03*
X026754Y015291D03*
X025814Y013311D03*
X026294Y011641D03*
X028654Y012771D03*
X028914Y012191D03*
X029634Y012721D03*
D82*
X030279Y012361D03*
X030319Y012151D03*
X028639Y012761D03*
X026279Y011661D03*
X026279Y011651D03*
X025809Y013321D03*
X025809Y013331D03*
X027689Y015301D03*
X028129Y015741D03*
X028129Y015751D03*
X028129Y016201D03*
X028129Y016211D03*
X030169Y014621D03*
D83*
X028124Y016271D03*
X028124Y016281D03*
X026804Y015271D03*
X030274Y012341D03*
X030324Y012211D03*
X030324Y012201D03*
X026264Y011681D03*
D84*
X026229Y011711D03*
X025779Y013431D03*
X028129Y016371D03*
D85*
X028124Y016561D03*
X027394Y016761D03*
X026004Y014881D03*
X025714Y013651D03*
X028134Y014591D03*
X028894Y012441D03*
X026044Y011721D03*
D86*
X026049Y011731D03*
X029919Y014051D03*
X028129Y014611D03*
X028129Y014621D03*
X026009Y014871D03*
D87*
X027324Y015011D03*
X028134Y014601D03*
X028124Y016571D03*
X028864Y016761D03*
X025704Y013661D03*
X026054Y011741D03*
D88*
X026069Y011751D03*
X025699Y013671D03*
D89*
X025699Y013681D03*
X026079Y011761D03*
X028859Y016751D03*
D90*
X028124Y016581D03*
X027334Y015021D03*
X026004Y014841D03*
X028904Y012451D03*
X026094Y011771D03*
D91*
X026099Y011781D03*
X026009Y014831D03*
X027399Y016741D03*
D92*
X028924Y015031D03*
X026114Y011791D03*
D93*
X026119Y011801D03*
X026129Y011811D03*
X026139Y011821D03*
X026149Y011831D03*
X026019Y014821D03*
X028859Y016741D03*
D94*
X028124Y016591D03*
X027394Y016731D03*
X027334Y015031D03*
X026014Y014811D03*
X026374Y012001D03*
X026354Y011991D03*
X026164Y011841D03*
D95*
X026169Y011851D03*
X026179Y011861D03*
X026189Y011871D03*
X026199Y011881D03*
X026209Y011891D03*
X026219Y011901D03*
X026319Y011971D03*
X026009Y014801D03*
D96*
X028124Y016601D03*
X028864Y016731D03*
X028924Y012461D03*
X026334Y011981D03*
X026304Y011961D03*
X026234Y011911D03*
D97*
X026249Y011921D03*
X026259Y011931D03*
X026269Y011941D03*
X026289Y011951D03*
D98*
X026544Y012011D03*
X026574Y012031D03*
X026594Y012041D03*
X029734Y014011D03*
X028134Y014531D03*
X027394Y016821D03*
D99*
X028859Y016821D03*
X027319Y014941D03*
X025999Y014981D03*
X025739Y013541D03*
X026559Y012021D03*
X028879Y012371D03*
X028889Y012381D03*
X029759Y014021D03*
X030279Y014461D03*
D100*
X030264Y014471D03*
X029714Y014001D03*
X029694Y013991D03*
X027314Y014931D03*
X028124Y016461D03*
X028614Y016681D03*
X028864Y016831D03*
X026774Y012151D03*
X026694Y012101D03*
X026684Y012091D03*
X026664Y012081D03*
X026654Y012071D03*
X026614Y012051D03*
D101*
X026629Y012061D03*
X026709Y012111D03*
X026719Y012121D03*
X026739Y012131D03*
X026759Y012141D03*
X027459Y013231D03*
X025739Y013531D03*
X025999Y014991D03*
X028129Y016471D03*
X028949Y014941D03*
D102*
X028929Y014791D03*
X030149Y014671D03*
X028129Y015831D03*
X028129Y015841D03*
X028129Y015851D03*
X028129Y015861D03*
X028129Y015871D03*
X028129Y015881D03*
X028129Y016071D03*
X028129Y016081D03*
X028129Y016091D03*
X028129Y016101D03*
X028129Y016111D03*
X027709Y015321D03*
X027349Y014791D03*
X027339Y014781D03*
X026739Y015301D03*
X030299Y012101D03*
D103*
X030314Y012161D03*
X028904Y012221D03*
X027464Y013141D03*
X028904Y014851D03*
X028124Y016221D03*
X026784Y015281D03*
X026004Y015151D03*
D104*
X026799Y012161D03*
D105*
X028899Y012231D03*
X029619Y012711D03*
X030279Y012351D03*
X030329Y012171D03*
X028129Y014471D03*
X028129Y015701D03*
X028129Y015711D03*
X028129Y015721D03*
X028129Y015731D03*
X028129Y016231D03*
X028129Y016241D03*
X028859Y016881D03*
X030169Y014611D03*
D106*
X029659Y013971D03*
X029629Y013951D03*
X029609Y013941D03*
X029579Y013921D03*
X028729Y012721D03*
X028889Y012361D03*
X026869Y012201D03*
X026819Y012171D03*
X025999Y015011D03*
D107*
X025994Y015001D03*
X027314Y014921D03*
X028134Y014521D03*
X028954Y014931D03*
X029644Y013961D03*
X029674Y013981D03*
X026834Y012181D03*
X025744Y013511D03*
X025744Y013521D03*
X028124Y016451D03*
X027394Y016831D03*
D108*
X030179Y014581D03*
X028659Y012751D03*
X028889Y012251D03*
X027459Y013151D03*
X025799Y013361D03*
D109*
X025794Y013381D03*
X027454Y013161D03*
X028654Y012741D03*
X030294Y012311D03*
X030314Y012291D03*
X030304Y012281D03*
X028134Y014481D03*
X027664Y015281D03*
X028124Y016311D03*
X028124Y016321D03*
X030194Y014561D03*
D110*
X030204Y014541D03*
X027654Y015271D03*
X027334Y014881D03*
X028124Y016341D03*
X028124Y016351D03*
X028484Y016641D03*
X025784Y013411D03*
X025784Y013401D03*
X028884Y012291D03*
D111*
X028869Y012391D03*
X025739Y013561D03*
X025729Y013571D03*
X028129Y016501D03*
D112*
X028864Y016811D03*
X028954Y014961D03*
X029814Y014041D03*
X028884Y012401D03*
X027454Y013251D03*
X026004Y014951D03*
D113*
X025994Y014941D03*
X028134Y014551D03*
X028954Y014971D03*
X028124Y016511D03*
X028884Y012411D03*
D114*
X028899Y012421D03*
X027449Y013271D03*
X028129Y014701D03*
X028129Y014711D03*
X028129Y016531D03*
D115*
X028129Y014681D03*
X026889Y013651D03*
X026939Y013611D03*
X026959Y013601D03*
X027009Y013571D03*
X027049Y013551D03*
X027099Y013521D03*
X027239Y013431D03*
X027259Y013421D03*
X027379Y013341D03*
X025719Y013621D03*
X028889Y012431D03*
D116*
X028924Y012471D03*
X026024Y014771D03*
X028864Y016701D03*
D117*
X029079Y012481D03*
D118*
X029074Y012491D03*
D119*
X029064Y012501D03*
X029104Y012701D03*
D120*
X029099Y012691D03*
X029069Y012511D03*
D121*
X029064Y012521D03*
D122*
X029054Y012531D03*
X029104Y012671D03*
X026044Y014551D03*
X026034Y014561D03*
D123*
X029049Y012541D03*
D124*
X029049Y012551D03*
X026049Y014541D03*
D125*
X029069Y012621D03*
X029039Y012561D03*
D126*
X029024Y012571D03*
X026044Y014521D03*
D127*
X029029Y012581D03*
D128*
X029039Y012591D03*
X029049Y012601D03*
X026039Y014511D03*
D129*
X026044Y014531D03*
X029054Y012611D03*
D130*
X029074Y012631D03*
X029084Y012641D03*
X029094Y012651D03*
D131*
X029104Y012661D03*
D132*
X029099Y012681D03*
D133*
X028779Y012711D03*
X025729Y013591D03*
X025719Y013581D03*
X027309Y014971D03*
X028869Y016801D03*
D134*
X028499Y016651D03*
X027779Y016631D03*
X030209Y014531D03*
X028669Y012731D03*
D135*
X027459Y013171D03*
X028459Y016631D03*
X027399Y016861D03*
D136*
X028529Y016661D03*
X028939Y014901D03*
X027459Y013191D03*
D137*
X027464Y013241D03*
X026004Y014971D03*
X028124Y016481D03*
X028954Y014951D03*
D138*
X028129Y014721D03*
X027449Y013261D03*
X025999Y014931D03*
D139*
X025999Y014911D03*
X026909Y013631D03*
X027049Y013541D03*
X027119Y013501D03*
X027449Y013281D03*
X028129Y014691D03*
X028949Y014991D03*
X028129Y016541D03*
X027389Y016781D03*
D140*
X028129Y014661D03*
X028129Y014651D03*
X028129Y014581D03*
X027339Y013371D03*
X027409Y013331D03*
X027449Y013291D03*
X026979Y013591D03*
X025709Y013631D03*
D141*
X025714Y013641D03*
X027454Y013301D03*
X028134Y014641D03*
X028944Y015001D03*
X028864Y016771D03*
X027394Y016771D03*
D142*
X027319Y015001D03*
X028129Y014631D03*
X028939Y015011D03*
X027439Y013311D03*
X027419Y013321D03*
X025999Y014861D03*
D143*
X026904Y013641D03*
X026924Y013621D03*
X026984Y013581D03*
X027014Y013561D03*
X027084Y013531D03*
X027114Y013511D03*
X027154Y013491D03*
X027174Y013471D03*
X027194Y013461D03*
X027204Y013451D03*
X027364Y013351D03*
X028134Y014671D03*
X028124Y016551D03*
X028864Y016781D03*
D144*
X027314Y014991D03*
X028134Y014571D03*
X026834Y013671D03*
X026824Y013681D03*
X027164Y013481D03*
X027224Y013441D03*
X027274Y013411D03*
X027294Y013401D03*
X027294Y013391D03*
X027324Y013381D03*
X027344Y013361D03*
X025994Y014891D03*
X025994Y014901D03*
D145*
X025779Y013391D03*
X028929Y014881D03*
X028859Y016871D03*
D146*
X027309Y014951D03*
X025989Y014961D03*
X025739Y013551D03*
X029779Y014031D03*
D147*
X028954Y014981D03*
X028134Y014561D03*
X025724Y013611D03*
X025724Y013601D03*
X027394Y016791D03*
D148*
X028864Y016791D03*
X027314Y014981D03*
X026864Y013661D03*
D149*
X026219Y013691D03*
X026209Y013701D03*
X026209Y013711D03*
X026189Y013721D03*
X026169Y013731D03*
X026129Y013751D03*
D150*
X026124Y013761D03*
X026144Y013741D03*
D151*
X026119Y013771D03*
X026109Y013781D03*
D152*
X026089Y013791D03*
X025989Y013861D03*
D153*
X026024Y013831D03*
X026084Y013801D03*
X025934Y013891D03*
D154*
X025959Y013881D03*
X026019Y013841D03*
X026059Y013811D03*
D155*
X026054Y013821D03*
X025924Y013901D03*
X025924Y013911D03*
X025904Y013921D03*
D156*
X025994Y013851D03*
D157*
X025944Y013871D03*
D158*
X025889Y013931D03*
X025859Y013951D03*
X025849Y013961D03*
X026019Y014331D03*
D159*
X025864Y013941D03*
D160*
X025839Y013971D03*
X026009Y014311D03*
X026039Y014351D03*
D161*
X026024Y014341D03*
X026014Y014321D03*
X025824Y013981D03*
D162*
X025809Y013991D03*
X025789Y014011D03*
X025969Y014281D03*
X025989Y014301D03*
X026049Y014391D03*
D163*
X025794Y014001D03*
D164*
X025779Y014021D03*
X026049Y014381D03*
X026039Y014401D03*
X026049Y014411D03*
D165*
X025924Y014251D03*
X025764Y014031D03*
D166*
X025759Y014041D03*
X025879Y014201D03*
X025879Y014211D03*
X026059Y014431D03*
D167*
X026054Y014451D03*
X025754Y014051D03*
D168*
X028869Y015061D03*
X030059Y014061D03*
X030329Y014251D03*
X030339Y014261D03*
X030349Y014271D03*
X030359Y014281D03*
D169*
X025804Y014131D03*
X025754Y014061D03*
D170*
X028874Y015071D03*
X030074Y014071D03*
X030124Y014101D03*
X030134Y014111D03*
X030154Y014121D03*
X030314Y014231D03*
X030324Y014241D03*
D171*
X026049Y014461D03*
X025779Y014111D03*
X025759Y014071D03*
D172*
X030094Y014081D03*
X030234Y014171D03*
X030244Y014181D03*
D173*
X026064Y014471D03*
X025774Y014101D03*
X025764Y014091D03*
X025764Y014081D03*
D174*
X027399Y015061D03*
X028879Y015081D03*
X030109Y014091D03*
X030169Y014131D03*
X030189Y014141D03*
X030209Y014151D03*
X030219Y014161D03*
X030259Y014191D03*
X030279Y014201D03*
X030289Y014211D03*
X030299Y014221D03*
D175*
X025819Y014161D03*
X025819Y014151D03*
X025809Y014141D03*
X025789Y014121D03*
D176*
X025849Y014171D03*
X025859Y014191D03*
D177*
X025854Y014181D03*
X026064Y014441D03*
D178*
X025949Y014271D03*
X025909Y014241D03*
X025909Y014231D03*
X025899Y014221D03*
D179*
X025944Y014261D03*
X026054Y014421D03*
D180*
X030374Y014291D03*
X030384Y014301D03*
X030394Y014311D03*
D181*
X026044Y014371D03*
X026034Y014361D03*
X025964Y014291D03*
D182*
X026019Y014741D03*
X026019Y014751D03*
X030399Y014321D03*
X030409Y014331D03*
D183*
X030414Y014341D03*
X030424Y014351D03*
X030434Y014361D03*
X030434Y014371D03*
X030444Y014381D03*
X027394Y016681D03*
D184*
X028859Y016691D03*
X026019Y014761D03*
X030449Y014391D03*
X030459Y014401D03*
X030469Y014421D03*
X030479Y014431D03*
X030479Y014441D03*
D185*
X030484Y014451D03*
X030464Y014411D03*
D186*
X026044Y014481D03*
D187*
X026039Y014491D03*
X026049Y014501D03*
D188*
X028134Y014541D03*
X028124Y016491D03*
X027394Y016811D03*
D189*
X028919Y015161D03*
X027359Y015131D03*
X026159Y014571D03*
D190*
X026039Y014581D03*
X026039Y014591D03*
D191*
X026029Y014601D03*
D192*
X026034Y014611D03*
D193*
X026034Y014621D03*
D194*
X026034Y014631D03*
D195*
X026029Y014641D03*
D196*
X026019Y014651D03*
X026029Y014661D03*
X027299Y015231D03*
X027329Y015201D03*
D197*
X027339Y015171D03*
X026029Y014671D03*
X028939Y015211D03*
D198*
X028914Y015151D03*
X027364Y015121D03*
X026024Y014691D03*
X026014Y014681D03*
D199*
X026029Y014701D03*
X027369Y015111D03*
D200*
X027384Y015081D03*
X026034Y014721D03*
X026034Y014711D03*
X028894Y015111D03*
D201*
X028889Y015101D03*
X028889Y015091D03*
X027389Y015071D03*
X026029Y014731D03*
D202*
X026019Y014781D03*
D203*
X026014Y014791D03*
X027394Y016721D03*
X028904Y015041D03*
D204*
X028934Y015021D03*
X027394Y016751D03*
X026014Y014851D03*
D205*
X025994Y014921D03*
X028124Y016521D03*
D206*
X027399Y016801D03*
X027309Y014961D03*
D207*
X027354Y015041D03*
X028864Y016711D03*
X028864Y016721D03*
D208*
X027399Y016701D03*
X027359Y015051D03*
X028889Y015051D03*
D209*
X028899Y015121D03*
X027379Y015091D03*
D210*
X027374Y015101D03*
X028904Y015131D03*
X028904Y015141D03*
D211*
X028924Y015171D03*
X028974Y015251D03*
X028994Y015261D03*
X027354Y015141D03*
D212*
X027349Y015151D03*
X027259Y015261D03*
X028929Y015191D03*
X028929Y015181D03*
D213*
X028934Y015201D03*
X028964Y015241D03*
X027344Y015161D03*
X027284Y015241D03*
X027274Y015251D03*
D214*
X027334Y015191D03*
X027334Y015181D03*
X028944Y015221D03*
X028944Y015231D03*
D215*
X027324Y015211D03*
X027314Y015221D03*
D216*
X028119Y016611D03*
X027399Y016711D03*
D217*
X027399Y016691D03*
X028119Y016621D03*
M02*
