G75*
G70*
%OFA0B0*%
%FSLAX24Y24*%
%IPPOS*%
%LPD*%
%AMOC8*
5,1,8,0,0,1.08239X$1,22.5*
%
%ADD10R,0.0680X0.0680*%
%ADD11C,0.0680*%
%ADD12C,0.0710*%
%ADD13C,0.0789*%
%ADD14R,0.0634X0.0634*%
%ADD15C,0.0634*%
%ADD16R,0.0789X0.0789*%
%ADD17C,0.2620*%
D10*
X014559Y013176D03*
X015559Y013176D03*
X021134Y016651D03*
X035809Y005176D03*
D11*
X034809Y005176D03*
X033809Y005176D03*
X032809Y005176D03*
X031809Y005176D03*
X030809Y005176D03*
X029809Y005176D03*
X028809Y005176D03*
X027809Y005176D03*
X026809Y005176D03*
X025809Y005176D03*
X024809Y005176D03*
X023809Y005176D03*
X023809Y004176D03*
X024809Y004176D03*
X025809Y004176D03*
X026809Y004176D03*
X027809Y004176D03*
X028809Y004176D03*
X029809Y004176D03*
X030809Y004176D03*
X031809Y004176D03*
X032809Y004176D03*
X033809Y004176D03*
X034809Y004176D03*
X035809Y004176D03*
X020134Y016651D03*
X020134Y017651D03*
X021134Y017651D03*
X021134Y018651D03*
X020134Y018651D03*
X020134Y019651D03*
X021134Y019651D03*
X021134Y020651D03*
X020134Y020651D03*
X015559Y012176D03*
X014559Y012176D03*
X014559Y011176D03*
X015559Y011176D03*
X015559Y010176D03*
X014559Y010176D03*
X014559Y009176D03*
X015559Y009176D03*
X015559Y008176D03*
X014559Y008176D03*
X014559Y007176D03*
X015559Y007176D03*
X015559Y006176D03*
D12*
X005190Y021151D03*
D13*
X006961Y021151D03*
X005134Y025151D03*
X009634Y027651D03*
X010634Y027651D03*
X011634Y027651D03*
X012634Y027651D03*
X024634Y027651D03*
X025634Y027651D03*
X026634Y027651D03*
X027634Y027651D03*
X028634Y027651D03*
X029634Y027651D03*
X030634Y027651D03*
X031634Y027651D03*
X032634Y027651D03*
X040634Y024651D03*
X040634Y023651D03*
X040634Y022651D03*
X040634Y021651D03*
X040634Y020651D03*
X040634Y019651D03*
X040634Y018651D03*
X040634Y017651D03*
X040634Y016651D03*
D14*
X017134Y001151D03*
D15*
X018134Y001151D03*
X019134Y001151D03*
X020134Y001151D03*
X021134Y001151D03*
X022134Y001151D03*
D16*
X040634Y025651D03*
X023634Y027651D03*
X008634Y027651D03*
X005134Y026151D03*
D17*
X004634Y001651D03*
X041634Y001651D03*
X041634Y028651D03*
X004634Y028651D03*
M02*
